<?xml version="1.0" encoding="UTF-8"?>
<!DOCTYPE svg PUBLIC "-//W3C//DTD SVG 1.1//EN" "http://www.w3.org/Graphics/SVG/1.1/DTD/svg11.dtd">
<!-- Creator: CorelDRAW -->
<svg xmlns="http://www.w3.org/2000/svg" xml:space="preserve" width="88.1769mm" height="83.1299mm" version="1.1" style="shape-rendering:geometricPrecision; text-rendering:geometricPrecision; image-rendering:optimizeQuality; fill-rule:evenodd; clip-rule:evenodd"
viewBox="0 0 2888.3 2722.98"
 xmlns:xlink="http://www.w3.org/1999/xlink"
 xmlns:xodm="http://www.corel.com/coreldraw/odm/2003">
 <defs>
  <style type="text/css">
   <![CDATA[
    .fil6 {fill:white}
    .fil1 {fill:#1495CC}
    .fil2 {fill:#3E9BC2}
    .fil0 {fill:#6BD5FF}
    .fil7 {fill:#005096;fill-rule:nonzero}
    .fil5 {fill:#BDF5FF;fill-rule:nonzero}
    .fil3 {fill:url(#id8)}
    .fil4 {fill:url(#id9)}
   ]]>
  </style>
    <mask id="id0">
  <linearGradient id="id1" gradientUnits="userSpaceOnUse" x1="1439.99" y1="662.36" x2="1943.8" y2="2111.81">
   <stop offset="0" style="stop-opacity:1; stop-color:white"/>
   <stop offset="1" style="stop-opacity:0; stop-color:white"/>
  </linearGradient>
     <rect style="fill:url(#id1)" x="289.5" y="777.07" width="2598.88" height="1364.47"/>
    </mask>
    <mask id="id2">
  <linearGradient id="id3" gradientUnits="userSpaceOnUse" x1="1076.4" y1="841.94" x2="1076.43" y2="470.71">
   <stop offset="0" style="stop-opacity:1; stop-color:white"/>
   <stop offset="1" style="stop-opacity:0; stop-color:white"/>
  </linearGradient>
     <rect style="fill:url(#id3)" x="805.39" y="411.75" width="572.7" height="747.89"/>
    </mask>
    <mask id="id4">
  <linearGradient id="id5" gradientUnits="userSpaceOnUse" x1="1764.7" y1="1496.86" x2="2053.47" y2="2890.51">
   <stop offset="0" style="stop-opacity:1; stop-color:white"/>
   <stop offset="1" style="stop-opacity:0; stop-color:white"/>
  </linearGradient>
     <rect style="fill:url(#id5)" x="902.09" y="1207.21" width="1858.51" height="954.35"/>
    </mask>
    <mask id="id6">
  <linearGradient id="id7" gradientUnits="userSpaceOnUse" x1="1101.66" y1="625.4" x2="1101.69" y2="933.58">
   <stop offset="0" style="stop-opacity:1; stop-color:white"/>
   <stop offset="1" style="stop-opacity:0; stop-color:white"/>
  </linearGradient>
     <rect style="fill:url(#id7)" x="962.27" y="411.41" width="572.7" height="639.57"/>
    </mask>
  <linearGradient id="id8" gradientUnits="userSpaceOnUse" x1="1689.83" y1="1059.28" x2="1953.8" y2="2718.63">
   <stop offset="0" style="stop-opacity:1; stop-color:#005096"/>
   <stop offset="1" style="stop-opacity:1; stop-color:#6BD5FF"/>
  </linearGradient>
  <linearGradient id="id9" gradientUnits="userSpaceOnUse" x1="1453.68" y1="1388.77" x2="2564.48" y2="2443.09">
   <stop offset="0" style="stop-opacity:1; stop-color:#005096"/>
   <stop offset="1" style="stop-opacity:1; stop-color:#0781EB"/>
  </linearGradient>
 </defs>
 <g id="Layer_x0020_1">
  <metadata id="CorelCorpID_0Corel-Layer"/>
  <g id="_105557733360096">
   <path class="fil0" d="M2689.73 920.01c-499.75,-557.46 -1455.97,-643.9 -2131.99,-322.13 -374.66,178.33 -675.45,606.27 -512.3,988.05 305.15,714.1 1861.53,695.44 2522.95,315.61 387.8,-222.71 416.58,-652.2 121.34,-981.54z"/>
   <path class="fil1" style="mask:url(#id0)" d="M1534.37 778.32c-533.45,-10.88 -1525.19,326.18 -1169.55,1039.28 5.43,11.37 11.26,22.71 17.55,34.01l1.38 2.46 1.39 2.45 1.39 2.45 2.82 4.88 2.87 4.84 1.45 2.41 1.45 2.41 1.47 2.4 1.47 2.4 1.49 2.39 1.49 2.38 1.51 2.37 1.51 2.37 1.53 2.37 3.08 4.71 1.56 2.34 3.13 4.67 1.59 2.32 1.6 2.33 1.6 2.31 1.61 2.31 3.25 4.6 1.64 2.29 1.65 2.28 1.66 2.28 1.67 2.27 1.67 2.26 1.68 2.26 1.7 2.25 1.71 2.25 1.72 2.24 1.72 2.23 1.74 2.22 1.74 2.22 1.75 2.21 1.76 2.21 1.77 2.2 3.56 4.38 3.61 4.36 1.81 2.17 1.82 2.17 1.83 2.16 1.84 2.15 1.85 2.15 1.86 2.15 1.87 2.13 1.87 2.13 1.89 2.13 3.79 4.23 1.92 2.11 1.91 2.1 1.94 2.09 1.93 2.09 1.95 2.08 1.95 2.07 1.96 2.06c9.36,4.23 18.81,8.36 28.36,12.42 9.54,4.05 19.18,8.01 28.91,11.9 9.72,3.88 19.52,7.68 29.44,11.39 9.9,3.71 19.87,7.34 29.94,10.88 10.06,3.54 20.2,7 30.44,10.38 10.22,3.37 20.51,6.66 30.9,9.88 10.37,3.21 20.82,6.33 31.35,9.38 10.51,3.04 21.11,6.01 31.78,8.9 10.65,2.88 21.37,5.68 32.18,8.4 10.79,2.72 21.65,5.36 32.57,7.92 10.92,2.56 21.89,5.03 32.94,7.44 11.04,2.39 22.13,4.71 33.28,6.96 11.15,2.24 22.34,4.4 33.61,6.48 11.25,2.08 22.56,4.08 33.92,6.01 11.35,1.93 22.75,3.77 34.2,5.54 11.44,1.77 22.93,3.46 34.47,5.08 11.53,1.62 23.1,3.15 34.71,4.62 4.03,0.51 8.07,1.01 12.12,1.5 -87.77,-109.37 -142.8,-225.05 -142.8,-339.27 0,-328.6 417.08,-594.97 931.56,-594.97 483.06,0 880.23,234.82 926.93,535.53 6.58,-7.95 12.9,-16.01 18.97,-24.17l0.49 -0.67c77.73,-104.81 113.15,-226.03 107.7,-350.76 -268.05,-433.82 -824.47,-606.04 -1353.38,-588.83z"/>
   <path class="fil2" style="mask:url(#id2)" d="M1378.08 411.75l0 582.19c0,31.51 -25.54,57.04 -57.04,57.04 -31.5,0 -57.03,-25.53 -57.03,-57.04l0 -577.1c37.95,-2.71 75.99,-4.4 114.07,-5.09zm-458.62 58.69c-38.47,9.38 -76.52,19.88 -114.08,31.44l0 638.63c0,6.71 1.16,13.15 3.29,19.13 14.35,-15.12 38.35,-25.04 65.52,-25.04 16.75,0 32.29,3.76 45.11,10.19 0.1,-1.41 0.16,-2.83 0.16,-4.28l0 -670.07z"/>
   <path class="fil3" d="M1833.66 1207.21c514.49,0 931.56,266.38 931.56,594.97 0,252.74 -246.75,468.66 -594.75,554.87 -220.36,54.59 -236.91,148.32 -153.44,306.45 11.72,19.08 12.55,75.43 -63.23,55.13 -394.48,-109.71 -1051.7,-521.69 -1051.7,-916.45 0,-328.59 417.08,-594.97 931.56,-594.97z"/>
   <path class="fil4" style="mask:url(#id4)" d="M1044.94 2141.47c542.83,65.74 1164.73,-33.94 1523.44,-239.93 78.8,-45.25 142.77,-99.04 192.22,-158.79 -46.7,-300.68 -443.87,-535.54 -926.95,-535.54 -514.49,0 -931.56,266.38 -931.56,594.98 0,114.24 55.07,229.91 142.85,339.28z"/>
   <path class="fil5" d="M955.03 1101.69c33.41,0 64.09,6.23 86.66,16.28 27.15,12.12 43.97,30.57 43.97,52.5 0,21.92 -16.82,40.38 -43.97,52.5 -22.57,10.05 -53.24,16.28 -86.66,16.28 -33.41,0 -64.09,-6.23 -86.66,-16.28 -27.15,-12.11 -43.98,-30.57 -43.98,-52.5 0,-21.92 16.82,-40.38 43.98,-52.5 22.57,-10.05 53.24,-16.28 86.66,-16.28zm71.21 50.89c-17.83,-7.94 -42.98,-12.86 -71.21,-12.86 -28.23,0 -53.38,4.92 -71.21,12.86 -13.21,5.89 -21.4,12.33 -21.4,17.89 0,5.57 8.19,12 21.4,17.89 17.83,7.94 42.98,12.86 71.21,12.86 28.23,0 53.38,-4.92 71.21,-12.86 13.21,-5.89 21.4,-12.32 21.4,-17.89 0,-5.56 -8.18,-12 -21.4,-17.89z"/>
   <path class="fil5" d="M955.03 1101.69c56.62,0 108.27,9.99 145.98,26.11 42.61,18.22 68.97,45.25 68.97,76.71 0,31.47 -26.36,58.49 -68.97,76.72 -37.7,16.12 -89.35,26.1 -145.98,26.1 -56.62,0 -108.27,-9.99 -145.97,-26.1 -42.62,-18.23 -68.97,-45.25 -68.97,-76.72 0,-31.47 26.36,-58.49 68.97,-76.71 37.7,-16.12 89.35,-26.11 145.97,-26.11zm131.11 61.01c-33.19,-14.19 -79.53,-22.99 -131.11,-22.99 -51.58,0 -97.92,8.79 -131.11,22.99 -28.29,12.1 -45.81,27 -45.81,41.81 0,14.81 17.51,29.71 45.81,41.81 33.2,14.19 79.54,22.98 131.11,22.98 51.58,0 97.92,-8.79 131.11,-22.98 28.3,-12.1 45.81,-27 45.81,-41.81 0,-14.8 -17.51,-29.71 -45.81,-41.81z"/>
   <path class="fil5" d="M1413.64 960.77c33.41,0 64.09,6.23 86.66,16.28 27.15,12.11 43.97,30.57 43.97,52.5 0,21.92 -16.82,40.38 -43.97,52.5 -22.57,10.05 -53.25,16.28 -86.66,16.28 -33.41,0 -64.09,-6.23 -86.66,-16.28 -27.15,-12.12 -43.97,-30.57 -43.97,-52.5 0,-21.92 16.82,-40.38 43.97,-52.5 22.57,-10.05 53.24,-16.28 86.66,-16.28zm71.21 50.89c-17.83,-7.94 -42.98,-12.86 -71.21,-12.86 -28.23,0 -53.38,4.92 -71.21,12.86 -13.21,5.89 -21.4,12.33 -21.4,17.89 0,5.57 8.18,12 21.4,17.89 17.83,7.94 42.98,12.86 71.21,12.86 28.23,0 53.38,-4.92 71.21,-12.86 13.21,-5.89 21.4,-12.32 21.4,-17.89 0,-5.56 -8.19,-12 -21.4,-17.89z"/>
   <path class="fil5" d="M1413.64 960.77c56.62,0 108.27,9.99 145.97,26.1 42.61,18.23 68.98,45.25 68.98,76.71 0,31.47 -26.36,58.49 -68.98,76.72 -37.7,16.12 -89.35,26.11 -145.97,26.11 -56.62,0 -108.27,-9.99 -145.98,-26.11 -42.62,-18.23 -68.97,-45.25 -68.97,-76.72 0,-31.47 26.37,-58.49 68.97,-76.71 37.7,-16.12 89.35,-26.1 145.98,-26.1zm131.11 61.01c-33.2,-14.19 -79.54,-22.98 -131.11,-22.98 -51.58,0 -97.92,8.79 -131.11,22.98 -28.3,12.1 -45.81,27 -45.81,41.81 0,14.81 17.51,29.71 45.81,41.81 33.2,14.19 79.54,22.99 131.11,22.99 51.58,0 97.92,-8.79 131.11,-22.99 28.3,-12.1 45.81,-27 45.81,-41.81 0,-14.8 -17.51,-29.71 -45.81,-41.81z"/>
   <path class="fil6" style="mask:url(#id6)" d="M1076.34 438.68l0 555.27c0,31.49 -25.54,57.03 -57.03,57.03 -31.51,0 -57.04,-25.54 -57.04,-57.03l0 -533.51c37.71,-8.32 75.76,-15.54 114.07,-21.76zm458.63 -23.94c-37.97,-2.14 -76.02,-3.23 -114.08,-3.33l0 582.54c0,31.49 25.53,57.03 57.04,57.03 31.5,0 57.04,-25.54 57.04,-57.03l0 -579.21z"/>
   <path class="fil7" d="M1012.06 825.31l344.54 -58.82 0 -101.16 -344.54 58.82 0 101.16zm344.54 56.74l-344.54 58.82 0 199.65c0,31.5 -25.53,57.03 -57.04,57.03 -31.49,0 -57.04,-25.53 -57.04,-57.03l0 -783.33c0,-26.47 -10.87,-50.62 -28.4,-68.13 -17.51,-17.53 -41.66,-28.4 -68.12,-28.4 -26.5,0 -50.64,10.87 -68.16,28.4 -17.52,17.51 -28.41,41.66 -28.41,68.13 0,31.5 -25.53,57.04 -57.05,57.04 -31.48,0 -57.02,-25.54 -57.02,-57.04 0,-57.96 23.68,-110.65 61.81,-148.79 38.17,-38.14 90.83,-61.82 148.79,-61.82 57.98,0 110.67,23.69 148.8,61.82 38.14,38.14 61.83,90.83 61.83,148.79l0 34.71 344.54 -58.83 0 -122.45c0,-26.48 -10.87,-50.63 -28.4,-68.13 -17.52,-17.53 -41.67,-28.4 -68.15,-28.4 -26.5,0 -50.63,10.87 -68.16,28.4 -17.5,17.5 -28.39,41.65 -28.39,68.13 0,31.51 -25.52,57.04 -57.02,57.04 -31.51,0 -57.06,-25.53 -57.06,-57.04 0,-57.98 23.7,-110.66 61.84,-148.79 38.13,-38.14 90.8,-61.82 148.79,-61.82 57.97,0 110.65,23.67 148.79,61.82 38.15,38.13 61.83,90.81 61.83,148.79l0 783.33c0,31.5 -25.54,57.03 -57.04,57.03 -31.5,0 -57.03,-25.53 -57.03,-57.03l0 -111.89zm0 -433.42l-344.54 58.8 0 101.19 344.54 -58.83 0 -101.17z"/>
  </g>
 </g>
</svg>
