<?xml version="1.0" encoding="UTF-8"?>
<svg id="Layer_1" data-name="Layer 1" xmlns="http://www.w3.org/2000/svg" xmlns:xlink="http://www.w3.org/1999/xlink" viewBox="0 0 1080 1080">
  <defs>
    <style>
      .cls-1 {
        fill: url(#linear-gradient);
        stroke-width: 0px;
      }
    </style>
    <linearGradient id="linear-gradient" x1="423.92" y1="255.88" x2="650.82" y2="795.89" gradientUnits="userSpaceOnUse">
      <stop offset="0" stop-color="#f7c745"/>
      <stop offset=".5" stop-color="#d6a2a6"/>
      <stop offset="1" stop-color="#92c0df"/>
    </linearGradient>
  </defs>
  <polygon class="cls-1" points="790.78 361.18 507.79 361.18 451.29 454.79 423.91 454.79 494.42 338.08 694.5 338.08 651.93 267.57 454.64 267.57 285.07 548.39 257.7 548.39 370.77 361.18 288.37 361.18 185.6 531.44 238.46 618.9 352.16 618.9 408.67 525.29 491.01 525.29 547.51 431.68 751.06 431.68 764.94 454.79 560.77 454.79 518.21 525.29 807.57 525.29 821.51 548.39 421.98 548.39 379.82 618.16 436.78 712.51 616.88 712.51 646.81 812.43 749.64 642 476.49 642 462.55 618.9 842.5 618.9 894.4 532.86 790.78 361.18"/>
</svg>